<?xml version="1.0" standalone="no"?>
<!DOCTYPE svg PUBLIC "-//W3C//DTD SVG 20010904//EN"
 "http://www.w3.org/TR/2001/REC-SVG-20010904/DTD/svg10.dtd">
<svg version="1.0" xmlns="http://www.w3.org/2000/svg"
 width="736.000000pt" height="736.000000pt" viewBox="0 0 736.000000 736.000000"
 preserveAspectRatio="xMidYMid meet">
<metadata>
Created by potrace 1.11, written by Peter Selinger 2001-2013
</metadata>
<g transform="translate(0.000000,736.000000) scale(0.100000,-0.100000)"
fill="#000000" stroke="none">
<path d="M2075 6959 c-16 -5 -45 -11 -63 -14 -19 -3 -39 -8 -46 -12 -6 -4 -16
-8 -22 -9 -24 -4 -91 -39 -156 -81 -105 -69 -203 -184 -271 -320 -22 -43 -73
-174 -83 -213 -2 -8 -9 -35 -15 -60 -6 -25 -12 -52 -14 -60 -1 -8 -5 -28 -8
-45 -20 -85 -41 -273 -37 -330 1 -19 1 -28 -1 -57 -1 -23 11 -272 16 -303 2
-16 7 -55 10 -85 12 -103 26 -216 30 -240 2 -8 6 -40 10 -70 4 -30 9 -62 11
-71 3 -12 -22 -26 -108 -59 -62 -24 -137 -54 -166 -67 -29 -12 -54 -23 -56
-23 -3 0 -47 -20 -99 -45 -53 -25 -100 -45 -105 -45 -6 0 -12 -3 -14 -7 -2 -5
-21 -17 -43 -28 -106 -53 -307 -178 -352 -219 -6 -6 -26 -22 -45 -36 -18 -13
-81 -72 -140 -130 -103 -103 -194 -227 -233 -315 -9 -22 -21 -49 -26 -60 -4
-11 -14 -40 -20 -65 -7 -25 -14 -52 -17 -60 -2 -8 -5 -62 -7 -119 -5 -178 41
-318 161 -486 84 -119 295 -313 434 -400 143 -90 390 -217 555 -285 113 -46
114 -47 175 -73 129 -56 138 -88 115 -387 -29 -387 -32 -632 -11 -835 9 -78
17 -126 26 -149 5 -13 7 -26 4 -29 -2 -2 0 -17 7 -33 6 -16 13 -38 15 -50 7
-39 65 -169 105 -236 40 -68 150 -189 204 -225 76 -51 178 -98 232 -108 16 -3
39 -7 53 -10 14 -3 36 -8 50 -11 54 -12 227 -6 305 9 17 4 41 9 55 11 42 8
144 36 165 45 11 5 47 19 80 32 65 24 293 140 337 170 14 11 29 19 32 19 5 0
233 137 251 152 6 4 46 34 90 66 65 48 161 123 232 182 7 6 16 4 24 -6 27 -32
221 -174 239 -174 5 0 10 -4 10 -8 0 -4 22 -21 50 -37 27 -17 50 -33 50 -37 0
-5 4 -8 10 -8 5 0 47 -24 92 -53 83 -53 158 -96 278 -158 36 -19 68 -38 72
-44 4 -5 8 -6 8 -1 0 4 10 2 23 -6 18 -12 72 -35 202 -88 32 -13 147 -48 180
-54 17 -4 41 -9 55 -12 14 -4 78 -8 143 -9 99 -2 131 1 204 22 81 23 192 72
219 97 7 6 27 22 45 36 37 28 104 98 127 132 9 13 19 25 22 28 13 9 99 167
104 190 1 3 14 37 29 75 22 59 38 116 63 230 3 11 7 34 9 50 3 17 7 41 10 54
12 59 19 178 19 321 0 140 -11 336 -19 350 -1 3 -6 30 -9 61 -4 31 -9 67 -12
80 -24 117 -27 223 -7 262 8 17 21 37 28 44 13 13 93 56 110 59 23 5 220 90
223 97 2 4 10 7 18 7 21 0 276 126 374 186 378 227 614 502 674 784 13 60 15
235 3 285 -12 49 -58 176 -76 208 -10 19 -25 45 -33 58 -7 13 -41 60 -74 104
-92 119 -217 234 -391 360 -131 95 -361 212 -593 304 -137 54 -241 113 -226
128 2 3 -2 19 -9 38 -8 18 -13 34 -11 36 3 3 10 56 22 159 1 14 3 25 4 25 3 0
9 38 15 90 3 28 8 61 10 75 22 134 22 509 1 620 -3 14 -10 50 -15 80 -42 242
-124 441 -240 583 -29 35 -101 101 -147 133 -62 44 -175 96 -239 110 -5 1 -23
5 -40 9 -48 12 -269 13 -322 3 -107 -22 -229 -51 -238 -58 -5 -4 -26 -11 -45
-15 -19 -4 -41 -11 -50 -16 -17 -9 -92 -40 -100 -40 -4 -1 -184 -95 -235 -123
-10 -6 -25 -17 -33 -23 -7 -7 -17 -13 -22 -13 -8 0 -208 -134 -235 -157 -5 -5
-28 -22 -50 -38 -22 -16 -54 -41 -71 -55 -37 -30 -48 -38 -139 -110 -39 -30
-73 -59 -76 -64 -8 -10 -61 27 -153 109 -6 6 -32 26 -56 45 -55 42 -58 44 -95
75 -16 14 -33 25 -36 25 -3 0 -17 9 -30 20 -22 20 -171 124 -207 145 -275 162
-498 253 -717 290 -61 11 -286 13 -320 4z m286 -355 c247 -46 530 -191 829
-424 52 -41 100 -79 107 -84 6 -6 34 -31 62 -54 l50 -44 -17 -26 c-9 -14 -26
-36 -37 -47 -11 -12 -32 -37 -47 -56 -40 -51 -137 -171 -161 -199 -12 -14 -53
-63 -92 -110 -38 -47 -74 -90 -80 -96 -5 -6 -30 -36 -55 -65 -97 -116 -129
-139 -230 -158 -86 -17 -95 -19 -215 -37 -16 -3 -37 -7 -45 -9 -8 -2 -33 -7
-55 -10 -23 -3 -52 -7 -65 -10 -14 -3 -36 -7 -50 -9 -14 -3 -43 -8 -65 -11
-22 -3 -78 -12 -125 -20 -47 -7 -103 -16 -125 -19 -22 -3 -49 -7 -60 -10 -11
-2 -38 -7 -61 -10 l-41 -7 -11 63 c-6 35 -13 74 -16 88 -5 29 -23 146 -31 205
-22 169 -23 438 -1 552 3 11 7 38 10 59 4 22 12 57 17 79 6 22 12 45 13 50 13
68 76 215 117 271 68 93 139 137 254 159 67 13 114 11 226 -11z m2906 1 c122
-36 225 -132 273 -255 7 -19 17 -39 20 -45 25 -34 72 -257 86 -400 6 -59 6
-293 0 -350 -15 -152 -20 -196 -29 -250 -3 -16 -11 -66 -18 -110 -17 -117 -16
-115 -91 -100 -35 7 -81 16 -103 19 -22 3 -53 8 -70 12 -16 3 -37 7 -45 8 -21
3 -110 17 -140 22 -27 5 -146 21 -220 30 -80 9 -115 14 -140 19 -14 3 -34 7
-45 9 -53 10 -150 50 -197 80 -78 50 -158 130 -228 230 -19 28 -42 57 -50 66
-8 9 -22 27 -30 40 -8 13 -22 31 -30 40 -8 9 -31 36 -50 61 -19 24 -50 61 -69
81 -18 21 -40 46 -48 57 -7 11 -30 37 -49 58 -53 56 -58 68 -31 86 12 9 34 26
48 39 48 42 103 87 164 133 33 25 68 52 77 60 9 7 29 22 45 32 15 9 30 20 33
23 3 3 42 30 88 59 209 132 467 236 636 255 27 3 50 7 52 9 7 7 115 -5 161
-18z m-1564 -877 c8 -13 35 -44 59 -69 24 -25 68 -74 98 -110 30 -35 61 -71
70 -80 8 -9 34 -39 57 -65 23 -27 51 -60 62 -73 12 -13 21 -24 21 -25 0 -2
-764 1 -775 3 -7 1 -7 4 0 9 6 4 37 39 70 77 33 39 69 79 80 90 11 11 36 41
57 65 20 25 53 63 73 85 21 22 51 57 68 77 17 21 34 38 38 38 4 0 14 -10 22
-22z m502 -802 c51 -3 66 -7 121 -32 58 -26 101 -79 212 -267 62 -103 112
-192 112 -197 0 -6 5 -10 10 -10 6 0 10 -4 10 -10 0 -5 18 -39 40 -75 22 -36
40 -67 40 -69 0 -3 22 -42 48 -88 27 -46 65 -114 86 -153 21 -38 68 -124 105
-190 64 -117 66 -121 66 -195 l0 -75 -96 -175 c-53 -96 -105 -191 -115 -210
-10 -19 -21 -37 -24 -40 -3 -3 -12 -19 -20 -35 -8 -17 -39 -69 -67 -116 -29
-48 -53 -92 -53 -98 0 -6 -4 -11 -10 -11 -5 0 -10 -4 -10 -9 0 -5 -30 -59 -67
-121 -38 -61 -73 -118 -78 -128 -44 -74 -94 -115 -167 -136 -59 -18 -176 -29
-438 -42 -142 -7 -170 -7 -485 0 -263 6 -360 13 -385 26 -10 5 -20 7 -23 4 -7
-7 -62 21 -104 53 -39 29 -111 136 -219 328 -43 77 -83 148 -89 157 -5 9 -17
29 -26 45 -9 15 -58 100 -109 188 -51 88 -93 164 -95 170 -1 5 -10 27 -19 47
-15 35 -31 99 -39 158 -5 30 18 151 35 193 56 134 365 684 390 695 5 2 8 7 8
11 0 14 141 254 173 294 38 49 108 97 166 112 35 10 167 12 556 9 281 -2 533
-6 560 -8z m-1706 -114 c-18 -31 -43 -74 -56 -94 -13 -21 -23 -42 -23 -48 0
-5 -4 -10 -10 -10 -5 0 -10 -4 -10 -9 0 -9 -100 -192 -109 -201 -3 -3 -15 -23
-27 -45 -51 -98 -169 -300 -176 -303 -5 -2 -6 -8 -2 -13 3 -5 1 -9 -4 -9 -6 0
-111 291 -118 330 0 3 -4 12 -7 20 -10 23 -97 292 -97 300 0 6 138 37 250 56
14 2 45 9 70 14 25 5 56 12 70 14 51 9 234 46 236 49 2 1 12 3 24 4 20 2 19
-1 -11 -55z m2496 23 c72 -15 139 -28 150 -30 33 -5 88 -16 130 -25 22 -5 54
-11 70 -14 17 -3 41 -8 55 -11 14 -3 41 -8 60 -11 19 -3 37 -8 39 -10 5 -5
-44 -160 -106 -339 -19 -55 -36 -104 -37 -110 -12 -47 -20 -72 -25 -80 -3 -5
-7 -17 -8 -25 -1 -8 -11 -37 -22 -65 l-19 -50 -13 30 c-8 17 -32 59 -55 95
-22 36 -41 68 -42 73 -1 4 -8 17 -16 30 -7 12 -53 92 -101 177 -49 85 -95 163
-103 173 -8 9 -12 17 -8 17 4 0 -1 12 -12 28 -22 31 -102 171 -102 179 0 2 8
2 18 -1 9 -3 76 -17 147 -31z m910 -235 c11 -5 63 -24 115 -44 114 -42 187
-73 302 -131 77 -39 226 -125 253 -147 6 -4 46 -36 90 -70 308 -238 404 -453
307 -683 -9 -22 -19 -42 -22 -45 -3 -3 -14 -18 -23 -33 -28 -44 -46 -65 -123
-143 -157 -159 -405 -316 -684 -431 -118 -49 -290 -113 -305 -113 -7 0 -19 19
-28 43 -63 173 -119 324 -124 337 -3 8 -7 18 -8 23 -2 4 -4 9 -5 12 -1 3 -3 8
-5 13 -1 4 -5 16 -9 27 -4 11 -16 43 -26 70 -10 28 -32 86 -48 130 -79 209
-82 229 -43 321 27 66 121 315 126 336 2 10 11 32 19 50 9 18 20 47 25 63 5
17 27 76 49 133 22 56 38 102 35 102 -3 0 -1 6 4 13 6 6 25 51 43 99 34 90 33
90 85 68z m-4388 -2 c4 -7 33 -80 64 -163 31 -82 99 -267 153 -410 53 -143
104 -278 114 -299 28 -66 24 -106 -26 -241 -16 -44 -67 -181 -112 -305 -45
-124 -87 -236 -93 -250 -6 -14 -11 -27 -12 -30 -11 -45 -49 -140 -56 -140 -16
0 -170 56 -289 104 -353 145 -602 313 -782 527 -163 194 -169 388 -18 590 44
59 163 173 235 227 39 28 75 55 80 60 28 22 270 165 285 167 3 0 21 9 40 20
19 11 37 20 40 20 3 1 28 12 55 24 68 31 265 102 265 95 0 -3 8 0 18 5 23 14
29 13 39 -1z m713 -1645 c79 -137 166 -285 193 -331 27 -45 47 -85 44 -89 -3
-3 -28 0 -54 6 -26 6 -57 13 -68 16 -11 2 -76 15 -145 30 -69 14 -134 27 -145
29 -11 3 -42 10 -70 16 -27 7 -57 13 -65 15 -19 3 -17 10 32 164 22 69 41 130
43 136 1 5 5 17 8 25 7 19 31 93 32 100 2 19 41 130 45 130 3 0 70 -111 150
-247z m3057 224 c3 -13 81 -251 90 -277 26 -69 81 -245 78 -248 -3 -3 -194
-47 -255 -58 -14 -3 -85 -18 -158 -34 -74 -17 -137 -30 -142 -30 -5 0 16 44
47 98 30 53 65 116 78 139 13 22 35 59 49 82 14 22 26 42 26 45 0 2 35 64 78
138 43 74 82 142 85 153 8 18 19 15 24 -8z m-3319 -907 c26 -4 74 -12 107 -15
33 -4 62 -9 65 -10 5 -3 363 -64 415 -71 17 -2 36 -6 43 -9 7 -2 34 -7 60 -11
26 -3 57 -12 69 -20 22 -14 81 -74 118 -121 11 -14 69 -84 129 -157 60 -72
123 -148 140 -169 17 -22 36 -44 41 -50 6 -7 66 -79 133 -161 l123 -150 -23
-21 c-13 -11 -45 -38 -73 -60 -27 -22 -52 -42 -55 -45 -3 -3 -23 -18 -45 -35
-22 -16 -44 -33 -50 -37 -126 -100 -367 -243 -485 -288 -19 -7 -48 -19 -65
-26 -47 -20 -195 -62 -245 -70 -103 -15 -146 -13 -260 12 -55 12 -143 78 -201
150 -22 28 -74 139 -95 204 -19 58 -19 58 -28 105 -3 17 -10 55 -16 85 -35
175 -30 515 9 760 12 71 19 104 42 193 l10 38 45 -6 c25 -3 66 -10 92 -15z
m3577 -2 c8 -40 46 -272 49 -303 2 -16 7 -68 12 -115 14 -147 8 -456 -12 -535
-3 -11 -7 -33 -9 -50 -2 -16 -4 -31 -6 -32 -2 -3 -3 -7 -13 -48 -15 -58 -51
-170 -56 -175 -3 -3 -16 -27 -30 -55 -34 -67 -114 -146 -182 -178 -57 -27
-137 -44 -198 -42 -51 3 -153 16 -162 21 -5 3 -20 7 -33 10 -102 18 -354 128
-478 207 -31 20 -62 37 -67 37 -6 0 -10 3 -10 8 -1 4 -25 23 -55 42 -30 19
-55 38 -55 43 0 4 -4 7 -10 7 -8 0 -121 81 -140 100 -3 3 -30 25 -60 50 -30
25 -60 50 -66 55 -10 10 32 66 250 330 19 22 71 85 116 140 45 55 99 120 119
144 49 60 91 111 119 141 12 14 22 27 22 31 0 3 17 15 38 27 37 20 49 24 141
39 25 4 48 8 51 8 3 1 28 5 55 10 28 4 59 9 70 11 11 3 35 7 54 10 18 3 43 7
54 10 12 2 37 6 57 9 19 3 112 19 205 34 216 37 223 37 230 9z m-1415 -187 c0
-3 -30 -40 -66 -81 -149 -168 -183 -207 -220 -250 -22 -25 -53 -61 -70 -80
-17 -19 -45 -51 -62 -70 l-30 -35 -22 25 c-20 24 -105 119 -167 188 -15 17
-51 57 -79 89 -29 32 -72 81 -97 108 -24 28 -56 64 -71 82 l-27 32 456 -1
c250 0 455 -3 455 -7z"/>
<path d="M3173 4676 c-68 -32 -112 -79 -164 -173 -24 -42 -76 -130 -116 -196
-40 -65 -73 -123 -73 -127 0 -5 -4 -10 -8 -12 -4 -1 -21 -28 -36 -58 -16 -30
-31 -57 -35 -60 -10 -8 -111 -208 -133 -264 -24 -60 -32 -165 -17 -221 17 -63
63 -152 179 -350 87 -149 120 -208 120 -216 0 -5 4 -9 9 -9 5 0 15 -16 22 -35
7 -19 17 -35 21 -35 4 0 8 -5 8 -11 0 -6 21 -42 46 -81 59 -88 116 -123 218
-134 55 -5 339 -15 414 -14 6 0 18 0 25 0 6 0 39 0 72 -1 105 -2 327 12 445
27 109 15 139 43 245 221 48 81 96 160 106 175 10 15 19 29 19 32 0 3 31 58
68 123 38 65 90 159 116 208 26 50 52 95 58 102 10 13 14 105 5 141 -6 21 -56
121 -67 132 -3 3 -12 19 -21 35 -40 79 -74 140 -79 145 -3 3 -12 19 -20 35
-16 32 -38 71 -126 221 -30 51 -54 96 -54 102 0 6 -3 12 -7 14 -5 2 -35 48
-67 103 -77 130 -124 173 -210 191 -12 3 -221 7 -466 9 l-445 5 -52 -24z"/>
</g>
</svg>
