<?xml version="1.0" encoding="utf-8"?>
<!-- Generator: Adobe Illustrator 23.0.1, SVG Export Plug-In . SVG Version: 6.00 Build 0)  -->
<svg version="1.1" id="Layer_1" xmlns="http://www.w3.org/2000/svg" xmlns:xlink="http://www.w3.org/1999/xlink" x="0px" y="0px"
	 viewBox="0 0 67.33 61.47" style="enable-background:new 0 0 67.33 61.47;" xml:space="preserve">
<style type="text/css">
	.st0{fill:#262626;}
	.st1{display:none;}
	.st2{display:inline;}
	.st3{display:inline;fill:#9B372A;}
	.st4{display:inline;fill:#00D857;}
	.st5{display:inline;fill:#487EFF;}
	.st6{display:inline;fill:#F4D01E;}
	.st7{display:inline;fill:#FFFFFF;}
	.st8{fill:#FFFFFF;}
	.st9{fill:none;stroke:#D11527;stroke-width:2.5;stroke-miterlimit:10;}
	.st10{fill:none;stroke:#D11527;stroke-width:0.75;stroke-miterlimit:10;}
	.st11{fill:none;stroke:#00D857;stroke-width:0.75;stroke-miterlimit:10;}
	.st12{fill:none;stroke:#2E0EE5;stroke-width:0.75;stroke-miterlimit:10;}
	.st13{fill:none;stroke:#F4D01E;stroke-width:0.75;stroke-miterlimit:10;}
	.st14{fill:none;}
	.st15{display:inline;fill:#3300C9;}
	.st16{fill:none;stroke:#4D39C4;stroke-width:3;stroke-miterlimit:10;}
	.st17{fill:#9B372A;}
	.st18{fill:#00D857;}
	.st19{fill:none;stroke:#00D857;stroke-width:2.5;stroke-miterlimit:10;}
	.st20{fill:#487EFF;}
	.st21{fill:none;stroke:#2E0EE5;stroke-width:2.5;stroke-miterlimit:10;}
	.st22{fill:#F4D01E;}
	.st23{fill:none;stroke:#F4D01E;stroke-width:2.5;stroke-miterlimit:10;}
</style>
<path class="st20" d="M35.59,61.47c-24.84-0.98-18.35,2.66-29.9-16.57c-7.72-12.85-7.4-13.1-0.14-26.22
	c2.55-4.61,5.54-8.97,8.03-13.6c1.89-3.52,4.45-5.17,8.48-5.07c8.26,0.19,16.52,0,24.77,0.36c1.76,0.08,4.15,1.42,5.06,2.91
	c5.18,8.5,10.11,17.16,14.84,25.91c0.77,1.43,0.83,3.97,0.07,5.38c-4.23,7.9-8.7,15.67-13.38,23.31c-0.85,1.38-3,2.54-4.67,2.74
	C43.66,61.21,38.52,61.3,35.59,61.47z"/>
<g>
	<path class="st8" d="M53.29,22.73v11.85c0,0-2.54,0.5-3.06,0.57c-0.52,0.07-2.16,0.59-3.34-0.55c-1.83-1.75-8.33-8.21-8.33-8.21
		s-1.12-1.1-2.92-0.15c-1.65,0.87-4.1,2.15-5.12,2.64c-1.93,1.03-3.53-0.6-3.53-1.85c0-0.96,0.6-1.62,1.46-2.1
		c2.33-1.41,7.25-4.17,9.29-5.26c1.24-0.66,2.14-0.72,3.85,0.72c2.1,1.77,3.98,3.38,3.98,3.38s0.61,0.51,1.58,0.3
		C49.54,23.57,53.29,22.73,53.29,22.73z M27.43,42.81c0.31-0.81,0.21-1.71-0.39-2.33c-0.54-0.55-1.33-0.7-2.09-0.53
		c0.21-0.75,0.09-1.55-0.45-2.11c-0.54-0.55-1.33-0.7-2.09-0.53c0.21-0.75,0.09-1.54-0.45-2.1c-0.85-0.88-2.33-0.84-3.3,0.09
		c-0.97,0.93-1.58,2.6-0.72,3.59c0.86,0.98,1.85,0.38,2.6,0.21c-0.21,0.75-0.84,1.44-0.06,2.42c0.77,0.98,1.85,0.38,2.6,0.21
		c-0.21,0.74-0.81,1.51-0.07,2.42c0.75,0.91,1.98,0.43,2.79,0.17c-0.31,0.81-0.98,1.67-0.12,2.65c0.86,0.98,2.85,0.53,3.82-0.4
		c0.97-0.93,1.06-2.39,0.21-3.27C29.12,42.69,28.24,42.55,27.43,42.81z M45.15,36.64c-7.02-7.02-3.72-3.72-7.49-7.5
		c0,0-1.14-1.13-2.63-0.47c-1.05,0.46-2.4,1.09-3.42,1.57C30.48,30.82,29.68,31,29.3,31c-2.16-0.01-3.91-1.75-3.91-3.91
		c0-1.4,0.74-2.62,1.85-3.31c1.56-1.08,5.15-2.99,5.15-2.99s-1.09-1.39-3.49-1.39c-2.39,0-7.4,3.28-7.4,3.28s-1.42,0.91-3.44,0.09
		l-3.9-1.36v13.56c0,0,1.11,0.32,2.11,0.73c0.23-0.64,0.59-1.24,1.1-1.73c1.66-1.58,4.41-1.6,5.92-0.04
		c0.45,0.47,0.77,1.04,0.93,1.66c0.61,0.19,1.16,0.52,1.6,0.98c0.46,0.47,0.77,1.04,0.94,1.66c0.61,0.19,1.16,0.52,1.6,0.98
		c0.5,0.52,0.83,1.14,0.99,1.82c0.64,0.19,1.21,0.53,1.67,1c0.91,0.93,1.23,2.2,1.03,3.42c0,0,0,0,0.01,0
		c0.01,0.02,0.56,0.63,0.9,0.97c0.67,0.67,1.76,0.67,2.43,0c0.67-0.67,0.67-1.76,0-2.43c-0.02-0.02-2.41-2.52-2.22-2.72
		c0.19-0.19,3.24,2.98,3.29,3.03c0.67,0.67,1.76,0.67,2.43,0c0.67-0.67,0.67-1.76,0-2.43c-0.03-0.03-0.17-0.16-0.22-0.21
		c0,0-3.02-2.69-2.79-2.92C36.13,38.5,39.88,42,39.89,42c0.67,0.61,1.71,0.6,2.36-0.05c0.63-0.63,0.64-1.63,0.09-2.3
		c-0.01-0.04-2.86-3.01-2.64-3.23c0.23-0.23,3.04,2.67,3.05,2.68c0.67,0.67,1.76,0.67,2.43,0c0.67-0.67,0.67-1.76,0-2.43
		C45.17,36.65,45.15,36.65,45.15,36.64z"/>
</g>
</svg>
