<?xml version="1.0" encoding="utf-8"?>
<!-- Generator: Adobe Illustrator 23.0.1, SVG Export Plug-In . SVG Version: 6.00 Build 0)  -->
<svg version="1.1" id="Layer_1" xmlns="http://www.w3.org/2000/svg" xmlns:xlink="http://www.w3.org/1999/xlink" x="0px" y="0px"
	 viewBox="0 0 68.94 62.93" style="enable-background:new 0 0 68.94 62.93;" xml:space="preserve">
<style type="text/css">
	.st0{fill:#262626;}
	.st1{display:none;}
	.st2{display:inline;}
	.st3{display:inline;fill:#9B372A;}
	.st4{display:inline;fill:#00D857;}
	.st5{display:inline;fill:#487EFF;}
	.st6{display:inline;fill:#F4D01E;}
	.st7{display:inline;fill:#FFFFFF;}
	.st8{fill:#FFFFFF;}
	.st9{fill:none;stroke:#D11527;stroke-width:2.5;stroke-miterlimit:10;}
	.st10{fill:none;stroke:#D11527;stroke-width:0.75;stroke-miterlimit:10;}
	.st11{fill:none;stroke:#00D857;stroke-width:0.75;stroke-miterlimit:10;}
	.st12{fill:none;stroke:#2E0EE5;stroke-width:0.75;stroke-miterlimit:10;}
	.st13{fill:none;stroke:#F4D01E;stroke-width:0.75;stroke-miterlimit:10;}
	.st14{fill:none;}
	.st15{display:inline;fill:#3300C9;}
	.st16{fill:none;stroke:#4D39C4;stroke-width:3;stroke-miterlimit:10;}
	.st17{fill:#9B372A;}
	.st18{fill:#00D857;}
	.st19{fill:none;stroke:#00D857;stroke-width:2.5;stroke-miterlimit:10;}
	.st20{fill:#487EFF;}
	.st21{fill:none;stroke:#2E0EE5;stroke-width:2.5;stroke-miterlimit:10;}
	.st22{fill:#F4D01E;}
	.st23{fill:none;stroke:#F4D01E;stroke-width:2.5;stroke-miterlimit:10;}
</style>
<path class="st17" d="M36.44,62.93c-25.43-1.01-18.78,2.73-30.61-16.96c-7.91-13.16-7.57-13.41-0.14-26.85
	C8.29,14.4,11.36,9.94,13.9,5.2c1.93-3.6,4.56-5.29,8.68-5.19c8.45,0.2,16.92,0,25.36,0.37c1.8,0.08,4.25,1.46,5.18,2.98
	c5.3,8.7,10.35,17.56,15.2,26.53c0.79,1.46,0.85,4.06,0.08,5.51c-4.33,8.08-8.91,16.05-13.7,23.87c-0.87,1.42-3.07,2.6-4.78,2.8
	C44.7,62.67,39.43,62.76,36.44,62.93z"/>
<g>
	<path class="st8" d="M29.24,30.81L18.38,14.97c-0.38-0.55,0.02-1.3,0.69-1.3h6.69c0.28,0,0.54,0.14,0.7,0.38l7.26,11.15
		c0.33,0.5,1.07,0.51,1.4,0l7.32-11.16c0.15-0.23,0.42-0.38,0.7-0.38h6.63c0.67,0,1.07,0.75,0.69,1.31L39.56,30.8
		c-0.2,0.29-0.2,0.66,0,0.95l11.5,16.62c0.38,0.55-0.01,1.31-0.69,1.31h-6.62c-0.28,0-0.54-0.14-0.7-0.37l-7.95-12.05
		c-0.33-0.5-1.06-0.5-1.39,0L25.81,49.3c-0.15,0.23-0.42,0.38-0.7,0.38h-6.63c-0.67,0-1.07-0.75-0.69-1.31l11.44-16.62
		C29.44,31.46,29.44,31.09,29.24,30.81z"/>
</g>
</svg>
